<svg viewBox="0 0 140 140" xmlns="http://www.w3.org/2000/svg">
    <defs>
        <path id="a" d="M1012.835.8H.06v599.164h2025.55V.8z"/>
    </defs>
    <g fill="#F10404" fill-rule="evenodd">
        <path d="M120.32 50.83l5.89-5.897a1.89 1.89 0 0 0 0-2.675l-7.1-7.1c-.74-.738-1.94-.738-2.67 0l-5.37 5.372c-7.08-5.994-15.84-10.06-25.46-11.392v-4.704h3.6c1.04 0 1.89-.847 1.89-1.892v-10.04c0-1.044-.85-1.89-1.89-1.89H68.19c-1.04 0-1.89.846-1.89 1.89v10.04c0 1.045.85 1.892 1.89 1.892h3.6v4.698a49.936 49.936 0 0 0-18.41 6.37c-.92.537-1.18 1.745-.61 2.64l5.4 8.453c.53.842 1.64 1.147 2.51.65 7.15-4.087 15.53-5.643 23.91-4.302 17.12 2.74 30.02 17.64 30.45 34.974.5 20.454-16 37.25-36.34 37.25a36.24 36.24 0 0 1-18.15-4.845c-.86-.495-1.96-.198-2.5.636l-5.43 8.444c-.58.892-.32 2.1.6 2.64 9.88 5.838 21.51 8.132 33.16 6.368 23.99-3.633 42.07-24.462 42.48-48.72a49.834 49.834 0 0 0-8.54-28.86"
             />
        <path d="M87.13 82.7l17.83-8.02c2.75-1.235 1.59-5.37-1.4-5l-18.61 2.29a9.234 9.234 0 0 0-6.25-2.435c-5.13 0-9.29 4.157-9.29 9.285 0 5.13 4.16 9.286 9.29 9.286 3.74 0 6.96-2.217 8.43-5.405M32.87 66.075h26.89c1.04 0 1.89-.847 1.89-1.892v-6.58c0-1.046-.85-1.893-1.89-1.893H32.87c-1.05 0-1.9.847-1.9 1.892v6.58c0 1.046.85 1.893 1.9 1.893M52.75 76.397c0-1.045-.85-1.892-1.89-1.892h-26.9c-1.04 0-1.89.847-1.89 1.892v6.58c0 1.046.85 1.893 1.89 1.893h26.9c1.04 0 1.89-.847 1.89-1.892v-6.58M41.95 93.3H15.06c-1.04 0-1.89.847-1.89 1.893v6.58c0 1.045.85 1.892 1.89 1.892h26.89c1.05 0 1.9-.847 1.9-1.892v-6.58c0-1.046-.85-1.892-1.9-1.892"
             />
    </g>
</svg>